<svg xmlns="http://www.w3.org/2000/svg" width="48" height="48" viewBox="0 0 48 48" fill="none"><path fill-rule="evenodd" clip-rule="evenodd" d="M8.6896 11.0312C6.76593 14.1032 5.65634 17.7219 5.65634 21.5944C5.65634 32.7123 14.802 41.7383 26.1002 41.7383C31.1383 41.7383 35.7484 39.9435 39.3104 36.9688C41.2341 33.8968 42.3437 30.2781 42.3437 26.4056C42.3437 15.2877 33.198 6.26171 21.8998 6.26171C16.8617 6.26171 12.2516 8.05651 8.6896 11.0312ZM5.41136 14.4945C4.62681 16.7177 4.20039 19.1067 4.20039 21.5944C4.20039 33.528 14.0126 43.1889 26.1002 43.1889C29.7786 43.1889 33.2463 42.2942 36.2908 40.7131C32.5976 44.3203 27.5145 46.5494 21.8998 46.5494C17.55 46.5494 13.5193 45.2116 10.2067 42.9315C10.2463 42.6895 10.2668 42.4411 10.2668 42.188C10.2668 39.651 8.20264 37.5944 5.65634 37.5944C5.41109 37.5944 5.17031 37.6135 4.93542 37.6503C2.73813 34.438 1.45594 30.5684 1.45594 26.4056C1.45594 21.9506 2.92439 17.8316 5.41136 14.4945ZM7.57596 10.0703C2.93666 14.0287 0 19.8771 0 26.4056C0 30.7272 1.28684 34.7508 3.50256 38.1254C2.04139 38.896 1.04585 40.4261 1.04585 42.188C1.04585 44.7249 3.11004 46.7815 5.65634 46.7815C7.41568 46.7815 8.94487 45.7997 9.72203 44.356C13.205 46.6578 17.3943 48 21.8998 48C29.6943 48 36.5426 43.9829 40.424 37.9297C45.0633 33.9713 48 28.1229 48 21.5944C48 17.0634 46.5854 12.86 44.1689 9.38866C45.5186 8.58739 46.4227 7.11875 46.4227 5.43971C46.4227 2.90277 44.3585 0.846177 41.8122 0.846177C40.0432 0.846177 38.5068 1.8389 37.7337 3.29573C34.3622 1.20738 30.3734 0 26.1002 0C18.3057 0 11.4574 4.01709 7.57596 10.0703ZM11.7092 7.28686C14.7537 5.70577 18.2214 4.81112 21.8998 4.81112C33.9874 4.81112 43.7996 14.472 43.7996 26.4056C43.7996 28.8933 43.3732 31.2823 42.5886 33.5055C45.0756 30.1684 46.5441 26.0494 46.5441 21.5944C46.5441 17.2502 45.1477 13.2253 42.7721 9.93355C42.4625 9.99887 42.1414 10.0332 41.8122 10.0332C39.2659 10.0332 37.2018 7.97665 37.2018 5.43971C37.2018 5.19243 37.2214 4.9497 37.2591 4.71301C34.0514 2.65003 30.2188 1.45059 26.1002 1.45059C20.4855 1.45059 15.4024 3.67969 11.7092 7.28686ZM8.79463 41.867C8.64458 40.3931 7.47229 39.2201 5.99518 39.0629C6.83375 40.0848 7.77171 41.0242 8.79463 41.867ZM4.35064 39.326C5.54298 40.898 6.94741 42.3043 8.52196 43.5038C8.02221 44.5824 6.92701 45.3309 5.65634 45.3309C3.91413 45.3309 2.50179 43.9238 2.50179 42.188C2.50179 40.9162 3.26001 39.8208 4.35064 39.326ZM41.8122 2.29677C40.5475 2.29677 39.4566 3.03835 38.9536 4.1089C40.5837 5.27588 42.0444 6.6591 43.2922 8.21599C44.2885 7.68768 44.9668 6.64262 44.9668 5.43971C44.9668 3.70391 43.5545 2.29677 41.8122 2.29677ZM41.7056 8.58089C40.7965 7.52336 39.7786 6.55941 38.6689 5.70584C38.8015 7.2823 40.102 8.52784 41.7056 8.58089Z" fill="#F57F17"/></svg>
